<svg width="25" height="25" viewBox="0 0 25 25" fill="none" xmlns="http://www.w3.org/2000/svg">
<circle cx="12.1951" cy="12.1951" r="12.1951" fill="#9FD129"/>
<path d="M12.4996 25.0001V16.1586M12.4996 16.1586C12.4996 16.1586 12.4996 13.6384 12.4996 12.8049M12.4996 16.1586C12.4996 16.1586 11.89 14.0245 10.3656 13.4147C9.37065 13.0167 6.70703 13.4147 6.70703 13.4147C6.70703 13.4147 7.31679 16.1586 8.5363 16.7684C10.5708 17.7856 12.4996 16.1586 12.4996 16.1586ZM12.4996 12.8049C12.4996 10.6708 12.2106 9.13854 14.0241 8.23178C15.2436 7.62202 17.6826 7.31714 17.6826 7.31714C17.6826 7.31714 17.6826 10.9757 17.0729 11.8903C15.99 13.5146 13.8626 14.0131 12.4996 12.8049Z" stroke="white" stroke-width="1.21951"/>
</svg>
